<svg width="25" height="17" viewBox="0 0 25 17" fill="none" xmlns="http://www.w3.org/2000/svg">
<path fill-rule="evenodd" clip-rule="evenodd" d="M0.82698 2.13803C0.645452 2.4943 0.564702 2.9117 0.528781 3.50004H24.4712C24.4353 2.9117 24.3545 2.4943 24.173 2.13803C23.8854 1.57354 23.4265 1.1146 22.862 0.82698C22.2202 0.5 21.3802 0.5 19.7 0.5H5.3C3.61984 0.5 2.77976 0.5 2.13803 0.82698C1.57354 1.1146 1.1146 1.57354 0.82698 2.13803ZM24.5 6.50004H0.5V11.7C0.5 13.3802 0.5 14.2202 0.82698 14.862C1.1146 15.4265 1.57354 15.8854 2.13803 16.173C2.77976 16.5 3.61984 16.5 5.3 16.5H19.7C21.3802 16.5 22.2202 16.5 22.862 16.173C23.4265 15.8854 23.8854 15.4265 24.173 14.862C24.5 14.2202 24.5 13.3802 24.5 11.7V6.50004ZM2.5 12.5H8.5V14.5H2.5V12.5Z" fill="white"/>
</svg>
