<svg width="36" height="36" viewBox="0 0 36 36" fill="none" xmlns="http://www.w3.org/2000/svg">
<path d="M25.5 3H10.5C6.35786 3 3 6.35786 3 10.5V25.5C3 29.6421 6.35786 33 10.5 33H25.5C29.6421 33 33 29.6421 33 25.5V10.5C33 6.35786 29.6421 3 25.5 3Z" stroke="#18191F" stroke-width="2" stroke-linecap="round" stroke-linejoin="round"/>
<path d="M24 17.0551C24.1852 18.3035 23.9719 19.5784 23.3907 20.6986C22.8094 21.8188 21.8898 22.7272 20.7625 23.2946C19.6352 23.862 18.3577 24.0595 17.1117 23.859C15.8657 23.6585 14.7147 23.0702 13.8223 22.1778C12.9299 21.2854 12.3416 20.1344 12.1412 18.8884C11.9407 17.6424 12.1381 16.3649 12.7055 15.2376C13.2729 14.1104 14.1813 13.1907 15.3015 12.6094C16.4217 12.0282 17.6967 11.815 18.945 12.0001C20.2184 12.1889 21.3973 12.7823 22.3076 13.6925C23.2179 14.6028 23.8112 15.7817 24 17.0551Z" stroke="#18191F" stroke-width="2" stroke-linecap="round" stroke-linejoin="round"/>
<path d="M26.25 9.75H26.265" stroke="#18191F" stroke-width="2" stroke-linecap="round" stroke-linejoin="round"/>
</svg>
