<svg width="17" height="21" viewBox="0 0 17 21" fill="none" xmlns="http://www.w3.org/2000/svg">
<path fill-rule="evenodd" clip-rule="evenodd" d="M1.29838 19.6196C3.28715 20.4844 5.78537 21 8.5 21C11.2146 21 13.7129 20.4844 15.7016 19.6196C16.1839 19.4099 16.5 18.9342 16.5 18.4027V10.4637C16.5 9.93226 16.1839 9.45657 15.7016 9.24686C15.3698 9.10258 15.019 8.97197 14.6602 8.8479V6.23739C14.6602 2.79809 11.8967 0 8.49998 0C5.10324 0 2.33976 2.79809 2.33976 6.23739V8.84792C1.98096 8.97199 1.6302 9.10258 1.29838 9.24686C0.816075 9.45657 0.5 9.93226 0.5 10.4637V18.4027C0.5 18.9342 0.816075 19.4099 1.29838 19.6196ZM9.72843 14.6524V16.6142C9.72843 17.3011 9.17845 17.858 8.5 17.858C7.82155 17.858 7.27155 17.3011 7.27155 16.6142V14.6524C6.79676 14.2801 6.48983 13.6989 6.48983 13.0438C6.48983 11.9197 7.38981 11.0085 8.5 11.0085C9.61019 11.0085 10.5102 11.9197 10.5102 13.0438C10.5102 13.6989 10.2032 14.2801 9.72843 14.6524ZM8.49998 2.63689C6.53915 2.63689 4.94403 4.25212 4.94403 6.23739V8.17856C6.06666 7.97891 7.25888 7.86646 8.5 7.86646C9.7411 7.86646 10.9333 7.97891 12.0559 8.17856V6.23739C12.0559 4.25212 10.4608 2.63689 8.49998 2.63689Z" fill="white"/>
</svg>
