<svg width="26" height="24" viewBox="0 0 26 24" fill="none" xmlns="http://www.w3.org/2000/svg">
<path d="M10.8333 13.2501C11.2821 13.2501 11.6458 13.5859 11.6458 14.0001V16.0001C11.6458 16.4143 11.2821 16.7501 10.8333 16.7501C10.3846 16.7501 10.0208 16.4143 10.0208 16.0001V14.0001C10.0208 13.5859 10.3846 13.2501 10.8333 13.2501Z" fill="white"/>
<path d="M15.9792 14.0001C15.9792 13.5859 15.6154 13.2501 15.1667 13.2501C14.7179 13.2501 14.3542 13.5859 14.3542 14.0001V16.0001C14.3542 16.4143 14.7179 16.7501 15.1667 16.7501C15.6154 16.7501 15.9792 16.4143 15.9792 16.0001V14.0001Z" fill="white"/>
<path fill-rule="evenodd" clip-rule="evenodd" d="M10.4536 3.37513C10.678 3.01641 10.5449 2.55771 10.1562 2.35061C9.76763 2.1435 9.27071 2.26641 9.04635 2.62513L6.87968 6.08923C6.84722 6.14112 6.82225 6.19511 6.80444 6.25013H6.49999C4.85465 6.25013 3.52083 7.48134 3.52083 9.00013C3.52083 9.85925 3.94762 10.6264 4.61618 11.1307L5.3387 15.7154L5.82267 17.8085C6.11264 19.0626 7.22175 20.0152 8.59772 20.1919C11.5185 20.5671 14.4815 20.5671 17.4023 20.1919C18.7782 20.0152 19.8874 19.0626 20.1773 17.8085L20.6613 15.7154L21.3838 11.1307C22.0524 10.6264 22.4792 9.85925 22.4792 9.00013C22.4792 7.48134 21.1453 6.25013 19.5 6.25013H19.1955C19.1777 6.19511 19.1528 6.14112 19.1203 6.08923L16.9536 2.62513C16.7293 2.26641 16.2324 2.1435 15.8437 2.35061C15.4551 2.55771 15.322 3.01641 15.5464 3.37513L17.3446 6.25013H8.65543L10.4536 3.37513ZM19.6446 11.7469C19.5967 11.7491 19.5485 11.7501 19.5 11.7501H6.49999C6.45152 11.7501 6.40332 11.7491 6.35541 11.7469L6.93907 15.4506L7.41188 17.4954C7.55919 18.1325 8.12264 18.6165 8.82167 18.7062C11.5939 19.0623 14.4061 19.0623 17.1783 18.7062C17.8774 18.6165 18.4408 18.1325 18.5881 17.4954L19.0609 15.4506L19.6446 11.7469ZM5.14583 9.00013C5.14583 8.30977 5.75211 7.75013 6.49999 7.75013H19.5C20.2479 7.75013 20.8542 8.30977 20.8542 9.00013C20.8542 9.69048 20.2479 10.2501 19.5 10.2501H6.49999C5.75211 10.2501 5.14583 9.69048 5.14583 9.00013Z" fill="white"/>
</svg>
