<svg width="36" height="36" viewBox="0 0 36 36" fill="none" xmlns="http://www.w3.org/2000/svg">
<path d="M34.5 4.50007C33.0636 5.51328 31.4732 6.28823 29.79 6.79507C28.8866 5.75634 27.686 5.02011 26.3506 4.68596C25.0151 4.35181 23.6092 4.43586 22.3231 4.92675C21.037 5.41764 19.9327 6.29167 19.1595 7.43064C18.3863 8.56962 17.9815 9.91857 18 11.2951V12.7951C15.364 12.8634 12.7519 12.2788 10.3965 11.0932C8.04112 9.90769 6 8.25 4.5 6.00007C4.5 6.00007 -1.5 19.5001 12 25.5001C8.91079 27.597 5.23074 28.6485 1.5 28.5001C15 36.0001 31.5 28.5001 31.5 11.2501C31.4986 10.8322 31.4584 10.4155 31.38 10.0051C32.9109 8.49531 33.9912 6.58914 34.5 4.50007Z" stroke="#18191F" stroke-width="2" stroke-linecap="round" stroke-linejoin="round"/>
</svg>
